<svg width="126" height="15" viewBox="0 0 126 15" fill="none" xmlns="http://www.w3.org/2000/svg">
<g clip-path="url(#clip0_480_95)">
<path d="M2.29 12.78C0.45 11.14 0 8.98 0 7.19C0 5.92 0.43 3.71 2.12 2.03C3.25 0.89 4.97 0 7.89 0C8.65 0 9.71 0.06 10.63 0.23C11.35 0.36 11.93 0.42 12.63 0.51C12.76 0.53 12.8 0.6 12.8 0.72C12.8 0.87 12.74 1.1 12.71 1.78C12.67 2.4 12.67 3.44 12.65 3.73C12.63 4.02 12.59 4.13 12.48 4.13C12.35 4.13 12.33 4 12.33 3.73C12.33 2.99 12.03 2.22 11.54 1.8C10.88 1.23 9.42 0.72 7.76 0.72C5.24 0.72 4.07 1.46 3.41 2.1C2.03 3.42 1.71 5.11 1.71 7.04C1.71 10.65 4.49 13.96 8.54 13.96C9.96 13.96 11.07 13.79 11.83 13.01C12.23 12.59 12.47 11.76 12.53 11.42C12.57 11.21 12.61 11.14 12.72 11.14C12.81 11.14 12.85 11.27 12.85 11.42C12.85 11.55 12.62 13.2 12.43 13.84C12.32 14.2 12.28 14.24 11.94 14.39C11.18 14.69 9.75 14.82 8.54 14.82C5.7 14.82 3.79 14.12 2.3 12.78H2.29Z" fill="white"/>
<path d="M17.5208 6.51001C17.5208 4.76001 17.5208 4.45001 17.5008 4.09001C17.4808 3.71001 17.3908 3.53001 17.0208 3.45001C16.9308 3.43001 16.7408 3.42001 16.6408 3.42001C16.6008 3.42001 16.5508 3.40001 16.5508 3.35001C16.5508 3.28001 16.6108 3.26001 16.7308 3.26001C17.2308 3.26001 17.9408 3.29001 18.0008 3.29001C18.1208 3.29001 18.9808 3.26001 19.3208 3.26001C20.0308 3.26001 20.7808 3.33001 21.3708 3.75001C21.6508 3.95001 22.1408 4.50001 22.1408 5.27001C22.1408 6.10001 21.7908 6.93001 20.7808 7.86001C21.7008 9.04001 22.4608 10.03 23.1108 10.73C23.7208 11.37 24.2008 11.49 24.4808 11.54C24.6908 11.57 24.8508 11.57 24.9208 11.57C24.9808 11.57 25.0208 11.6 25.0208 11.64C25.0208 11.71 24.9508 11.73 24.7508 11.73H23.9508C23.3208 11.73 23.0408 11.67 22.7508 11.52C22.2708 11.26 21.8808 10.71 21.2408 9.87001C20.7708 9.25001 20.2408 8.50001 20.0208 8.21001C19.9808 8.17001 19.9408 8.14001 19.8708 8.14001L18.4908 8.12001C18.4308 8.12001 18.4108 8.15001 18.4108 8.21001V8.48001C18.4108 9.56001 18.4108 10.44 18.4708 10.91C18.5008 11.24 18.5708 11.48 18.9108 11.53C19.0708 11.55 19.3108 11.57 19.4108 11.57C19.4808 11.57 19.5008 11.6 19.5008 11.64C19.5008 11.7 19.4408 11.73 19.3208 11.73C18.7008 11.73 18.0008 11.7 17.9408 11.7C17.9308 11.7 17.2208 11.73 16.8908 11.73C16.7708 11.73 16.7108 11.71 16.7108 11.64C16.7108 11.61 16.7308 11.57 16.8008 11.57C16.9008 11.57 17.0408 11.55 17.1408 11.53C17.3608 11.49 17.4208 11.24 17.4608 10.91C17.5208 10.44 17.5208 9.55001 17.5208 8.48001V6.51001ZM18.4208 7.49001C18.4208 7.55001 18.4408 7.59001 18.5008 7.62001C18.6708 7.72001 19.1808 7.80001 19.6808 7.80001C19.9508 7.80001 20.2608 7.77001 20.5208 7.59001C20.9108 7.32001 21.2008 6.72001 21.2008 5.86001C21.2008 4.46001 20.4608 3.62001 19.2608 3.62001C18.9208 3.62001 18.6208 3.65001 18.5108 3.69001C18.4508 3.71001 18.4208 3.76001 18.4208 3.82001V7.49001Z" fill="white"/>
<path d="M27.7593 6.51004C27.7593 4.76004 27.7593 4.45004 27.7393 4.09004C27.7193 3.71004 27.6293 3.53004 27.2593 3.45004C27.1793 3.43004 27.0393 3.43004 26.9293 3.42004C26.8493 3.41004 26.7793 3.40004 26.7793 3.35004C26.7793 3.28004 26.8393 3.26004 26.9593 3.26004C27.2193 3.26004 27.5193 3.26004 28.2293 3.29004C28.3093 3.29004 30.5393 3.29004 30.7993 3.28004C31.0493 3.27004 31.2493 3.25004 31.3193 3.21004C31.3893 3.17004 31.4093 3.17004 31.4393 3.17004C31.4693 3.17004 31.4793 3.21004 31.4793 3.27004C31.4793 3.35004 31.4093 3.48004 31.3893 3.80004C31.3793 3.97004 31.3693 4.18004 31.3493 4.47004C31.3393 4.58004 31.3093 4.66004 31.2593 4.66004C31.1893 4.66004 31.1693 4.60004 31.1693 4.51004C31.1693 4.36004 31.1493 4.23004 31.1093 4.14004C31.0293 3.88004 30.7993 3.77004 30.2993 3.73004C30.1093 3.71004 28.8893 3.70004 28.7593 3.70004C28.7193 3.70004 28.6893 3.73004 28.6893 3.81004V6.90004C28.6893 6.98004 28.6993 7.01004 28.7593 7.01004C28.9093 7.01004 30.2793 7.01004 30.5393 6.99004C30.8393 6.97004 30.9893 6.93004 31.0993 6.80004C31.1593 6.73004 31.1893 6.69004 31.2293 6.69004C31.2593 6.69004 31.2893 6.71004 31.2893 6.78004C31.2893 6.85004 31.2293 7.04004 31.1993 7.41004C31.1693 7.76004 31.1693 8.02004 31.1593 8.17004C31.1493 8.28004 31.1293 8.34004 31.0793 8.34004C31.0093 8.34004 30.9993 8.25004 30.9993 8.16004C30.9993 8.06004 30.9893 7.95004 30.9593 7.85004C30.9193 7.68004 30.7793 7.53004 30.3793 7.48004C30.0793 7.45004 28.9693 7.42004 28.7793 7.42004C28.7193 7.42004 28.6993 7.45004 28.6993 7.50004V8.49004C28.6993 8.87004 28.6893 10.17 28.6993 10.41C28.7193 10.87 28.7893 11.12 29.0693 11.23C29.2593 11.31 29.5593 11.33 29.9993 11.33C30.3393 11.33 30.7093 11.32 31.0093 11.23C31.3693 11.12 31.4893 10.88 31.5793 10.4C31.5993 10.28 31.6193 10.23 31.6793 10.23C31.7493 10.23 31.7493 10.32 31.7493 10.4C31.7493 10.49 31.6593 11.25 31.5993 11.49C31.5193 11.78 31.4293 11.78 30.9893 11.78C30.1593 11.78 29.7893 11.76 29.3493 11.75C28.8993 11.74 28.3893 11.72 27.9493 11.72C27.6793 11.72 27.4093 11.76 27.1193 11.75C26.9993 11.75 26.9393 11.73 26.9393 11.66C26.9393 11.63 26.9993 11.6 27.0593 11.59C27.1693 11.58 27.2393 11.58 27.3193 11.56C27.5593 11.5 27.6993 11.35 27.7193 10.51C27.7293 10.07 27.7393 9.50004 27.7393 8.50004V6.53004L27.7593 6.51004Z" fill="white"/>
<path d="M35.67 11.59C35.51 11.51 35.5 11.47 35.5 11.16C35.5 10.6 35.54 10.15 35.56 9.96997C35.57 9.84997 35.59 9.78997 35.65 9.78997C35.72 9.78997 35.73 9.81997 35.73 9.90997C35.73 10.01 35.73 10.17 35.76 10.32C35.93 11.15 36.67 11.46 37.42 11.46C38.5 11.46 39.02 10.69 39.02 9.96997C39.02 9.19997 38.7 8.74997 37.73 7.94997L37.23 7.53997C36.04 6.56997 35.77 5.86997 35.77 5.10997C35.77 3.90997 36.67 3.08997 38.09 3.08997C38.53 3.08997 38.85 3.12997 39.13 3.19997C39.34 3.23997 39.43 3.25997 39.52 3.25997C39.61 3.25997 39.63 3.27997 39.63 3.33997C39.63 3.39997 39.59 3.76997 39.59 4.52997C39.59 4.70997 39.57 4.78997 39.51 4.78997C39.44 4.78997 39.43 4.72997 39.42 4.63997C39.41 4.50997 39.34 4.19997 39.27 4.07997C39.2 3.95997 38.9 3.48997 37.87 3.48997C37.1 3.48997 36.49 3.96997 36.49 4.78997C36.49 5.42997 36.78 5.82997 37.86 6.66997L38.17 6.91997C39.49 7.95997 39.81 8.65997 39.81 9.54997C39.81 10.01 39.63 10.86 38.86 11.41C38.38 11.75 37.77 11.88 37.17 11.88C36.64 11.88 36.13 11.8 35.67 11.58V11.59Z" fill="white"/>
<path d="M44.6393 10.68C43.5493 9.70998 43.2793 8.42998 43.2793 7.35998C43.2793 6.60998 43.5393 5.29998 44.5393 4.29998C45.2093 3.62998 46.2293 3.09998 47.9593 3.09998C48.4093 3.09998 49.0393 3.12998 49.5893 3.22998C50.0193 3.30998 50.3593 3.33998 50.7793 3.39998C50.8593 3.40998 50.8793 3.45998 50.8793 3.51998C50.8793 3.60998 50.8493 3.73998 50.8193 4.14998C50.7993 4.51998 50.7993 5.13998 50.7893 5.29998C50.7793 5.46998 50.7593 5.53998 50.6893 5.53998C50.6093 5.53998 50.5993 5.45998 50.5993 5.29998C50.5993 4.85998 50.4193 4.39998 50.1293 4.15998C49.7393 3.81998 48.8693 3.51998 47.8893 3.51998C46.3993 3.51998 45.6993 3.95998 45.3093 4.33998C44.4893 5.11998 44.2993 6.11998 44.2993 7.25998C44.2993 9.39998 45.9493 11.36 48.3493 11.36C49.1893 11.36 49.8493 11.26 50.2993 10.8C50.5393 10.55 50.6793 10.06 50.7093 9.85998C50.7293 9.73998 50.7493 9.68998 50.8193 9.68998C50.8793 9.68998 50.8993 9.76998 50.8993 9.85998C50.8993 9.93998 50.7693 10.91 50.6493 11.29C50.5793 11.5 50.5593 11.53 50.3593 11.62C49.9093 11.8 49.0593 11.88 48.3393 11.88C46.6593 11.88 45.5293 11.47 44.6393 10.67V10.68Z" fill="white"/>
<path d="M55.1499 6.51004C55.1499 4.76004 55.1499 4.45004 55.1299 4.09004C55.1099 3.71004 55.0199 3.53004 54.6499 3.45004C54.5699 3.43004 54.4299 3.43004 54.3199 3.42004C54.2399 3.41004 54.1699 3.40004 54.1699 3.35004C54.1699 3.28004 54.2299 3.26004 54.3499 3.26004C54.6099 3.26004 54.9099 3.26004 55.6199 3.29004C55.6999 3.29004 57.9299 3.29004 58.1899 3.28004C58.4399 3.27004 58.6399 3.25004 58.7099 3.21004C58.7799 3.17004 58.7999 3.17004 58.8299 3.17004C58.8599 3.17004 58.8699 3.21004 58.8699 3.27004C58.8699 3.35004 58.7999 3.48004 58.7799 3.80004C58.7699 3.97004 58.7599 4.18004 58.7399 4.47004C58.7299 4.58004 58.6999 4.66004 58.6499 4.66004C58.5799 4.66004 58.5599 4.60004 58.5599 4.51004C58.5599 4.36004 58.5399 4.23004 58.4999 4.14004C58.4199 3.88004 58.1899 3.77004 57.6899 3.73004C57.4999 3.71004 56.2799 3.70004 56.1499 3.70004C56.1099 3.70004 56.0799 3.73004 56.0799 3.81004V6.90004C56.0799 6.98004 56.0899 7.01004 56.1499 7.01004C56.2999 7.01004 57.6699 7.01004 57.9299 6.99004C58.2299 6.97004 58.3799 6.93004 58.4899 6.80004C58.5499 6.73004 58.5799 6.69004 58.6199 6.69004C58.6499 6.69004 58.6799 6.71004 58.6799 6.78004C58.6799 6.85004 58.6199 7.04004 58.5899 7.41004C58.5599 7.76004 58.5599 8.02004 58.5499 8.17004C58.5399 8.28004 58.5199 8.34004 58.4699 8.34004C58.3999 8.34004 58.3899 8.25004 58.3899 8.16004C58.3899 8.06004 58.3799 7.95004 58.3499 7.85004C58.3099 7.68004 58.1699 7.53004 57.7699 7.48004C57.4699 7.45004 56.3599 7.42004 56.1699 7.42004C56.1099 7.42004 56.0899 7.45004 56.0899 7.50004V8.49004C56.0899 8.87004 56.0799 10.17 56.0899 10.41C56.1099 10.87 56.1799 11.12 56.4599 11.23C56.6499 11.31 56.9499 11.33 57.3899 11.33C57.7299 11.33 58.0999 11.32 58.3999 11.23C58.7599 11.12 58.8799 10.88 58.9699 10.4C58.9899 10.28 59.0099 10.23 59.0699 10.23C59.1399 10.23 59.1399 10.32 59.1399 10.4C59.1399 10.49 59.0499 11.25 58.9899 11.49C58.9099 11.78 58.8199 11.78 58.3799 11.78C57.5499 11.78 57.1799 11.76 56.7399 11.75C56.2899 11.74 55.7799 11.72 55.3399 11.72C55.0699 11.72 54.7999 11.76 54.5099 11.75C54.3899 11.75 54.3299 11.73 54.3299 11.66C54.3299 11.63 54.3899 11.6 54.4499 11.59C54.5599 11.58 54.6299 11.58 54.7099 11.56C54.9499 11.5 55.0899 11.35 55.1099 10.51C55.1199 10.07 55.1299 9.50004 55.1299 8.50004V6.53004L55.1499 6.51004Z" fill="white"/>
<path d="M63.4095 8.42999C63.4095 4.37999 63.4295 5.83999 63.4195 3.66999C63.4195 3.22999 63.4495 3.10999 63.5395 3.10999C63.6295 3.10999 63.8195 3.35999 63.9295 3.46999C64.0995 3.65999 65.7695 5.46999 67.4895 7.30999C68.5995 8.49999 69.8195 9.86999 70.1795 10.23L70.0595 4.53999C70.0495 3.80999 69.9695 3.56999 69.6195 3.47999C69.4195 3.43999 69.2395 3.41999 69.1395 3.41999C69.0195 3.41999 68.9795 3.38999 68.9795 3.33999C68.9795 3.26999 69.0695 3.25999 69.1995 3.25999C69.6995 3.25999 70.2395 3.28999 70.3695 3.28999C70.4995 3.28999 70.8595 3.25999 71.3195 3.25999C71.4395 3.25999 71.5195 3.26999 71.5195 3.33999C71.5195 3.37999 71.4795 3.40999 71.3995 3.41999C71.3095 3.42999 71.2395 3.43999 71.1095 3.45999C70.7995 3.52999 70.7195 3.69999 70.7195 4.46999L70.6995 11.02C70.6995 11.76 70.6795 11.82 70.5995 11.82C70.5095 11.82 70.3795 11.7 69.7795 11.1C69.6595 10.99 68.0395 9.33999 66.8495 8.05999C65.5495 6.65999 64.2795 5.24999 63.9295 4.83999L64.0795 10.21C64.0995 11.13 64.2095 11.42 64.5195 11.51C64.7295 11.57 64.9795 11.58 65.0795 11.58C65.1395 11.58 65.1695 11.6 65.1695 11.65C65.1695 11.72 65.0995 11.74 64.9695 11.74C64.3295 11.74 63.8795 11.71 63.7795 11.71C63.6795 11.71 63.2095 11.74 62.6995 11.74C62.5895 11.74 62.5195 11.73 62.5195 11.65C62.5195 11.61 62.5495 11.58 62.6095 11.58C62.6995 11.58 62.8995 11.57 63.0695 11.51C63.3495 11.43 63.4095 11.11 63.4095 10.09V8.42999Z" fill="white"/>
<path d="M78.5705 8.48999C78.5705 9.56999 78.5705 10.45 78.6305 10.92C78.6605 11.25 78.7305 11.49 79.0705 11.54C79.2305 11.56 79.4705 11.58 79.5705 11.58C79.6405 11.58 79.6605 11.61 79.6605 11.65C79.6605 11.71 79.6005 11.74 79.4805 11.74C78.8605 11.74 78.1605 11.71 78.1005 11.71C78.0405 11.71 77.3405 11.74 77.0005 11.74C76.8805 11.74 76.8205 11.72 76.8205 11.65C76.8205 11.62 76.8405 11.58 76.9105 11.58C77.0105 11.58 77.1505 11.56 77.2505 11.54C77.4705 11.5 77.5305 11.25 77.5805 10.92C77.6405 10.45 77.6405 9.55999 77.6405 8.48999V3.74999C77.0905 3.75999 76.5305 3.75999 75.9805 3.76999C75.2805 3.77999 75.0205 3.85999 74.8405 4.12999C74.7205 4.31999 74.6805 4.39999 74.6505 4.47999C74.6205 4.56999 74.5805 4.58999 74.5405 4.58999C74.5105 4.58999 74.4805 4.55999 74.4805 4.48999C74.4805 4.37999 74.7005 3.40999 74.7305 3.31999C74.7505 3.24999 74.8005 3.10999 74.8405 3.10999C74.9205 3.10999 75.0305 3.21999 75.3305 3.23999C75.6605 3.26999 76.0805 3.29999 76.2205 3.29999H80.4205C80.7805 3.29999 81.0405 3.27999 81.2205 3.23999C81.3905 3.21999 81.4905 3.17999 81.5305 3.17999C81.5905 3.17999 81.5905 3.24999 81.5905 3.30999C81.5905 3.64999 81.5605 4.41999 81.5605 4.53999C81.5605 4.63999 81.5305 4.68999 81.4805 4.68999C81.4205 4.68999 81.4005 4.65999 81.3905 4.49999C81.3905 4.45999 81.3805 4.41999 81.3805 4.37999C81.3505 4.03999 81.0805 3.78999 80.0005 3.75999C79.5305 3.74999 79.0605 3.74999 78.5905 3.73999V8.47999L78.5705 8.48999Z" fill="white"/>
<path d="M91.2194 10.68C90.1294 9.70998 89.8594 8.42998 89.8594 7.35998C89.8594 6.60998 90.1194 5.29998 91.1194 4.29998C91.7894 3.62998 92.8094 3.09998 94.5394 3.09998C94.9894 3.09998 95.6194 3.12998 96.1594 3.22998C96.5894 3.30998 96.9294 3.33998 97.3494 3.39998C97.4294 3.40998 97.4494 3.45998 97.4494 3.51998C97.4494 3.60998 97.4194 3.73998 97.3894 4.14998C97.3694 4.51998 97.3694 5.13998 97.3594 5.29998C97.3494 5.46998 97.3294 5.53998 97.2594 5.53998C97.1794 5.53998 97.1694 5.45998 97.1694 5.29998C97.1694 4.85998 96.9894 4.39998 96.6994 4.15998C96.3094 3.81998 95.4394 3.51998 94.4594 3.51998C92.9694 3.51998 92.2694 3.95998 91.8794 4.33998C91.0594 5.11998 90.8694 6.11998 90.8694 7.25998C90.8694 9.39998 92.5194 11.36 94.9194 11.36C95.7594 11.36 96.4194 11.26 96.8694 10.8C97.1094 10.55 97.2494 10.06 97.2794 9.85998C97.2994 9.73998 97.3194 9.68998 97.3894 9.68998C97.4494 9.68998 97.4694 9.76998 97.4694 9.85998C97.4694 9.93998 97.3394 10.91 97.2194 11.29C97.1494 11.5 97.1294 11.53 96.9294 11.62C96.4794 11.8 95.6294 11.88 94.9094 11.88C93.2294 11.88 92.0994 11.47 91.2094 10.67L91.2194 10.68Z" fill="white"/>
<path d="M102.67 8.51001C102.67 10.16 102.71 10.87 102.92 11.08C103.1 11.26 103.39 11.34 104.26 11.34C104.85 11.34 105.35 11.33 105.62 11C105.77 10.82 105.88 10.54 105.91 10.33C105.92 10.24 105.94 10.18 106.01 10.18C106.07 10.18 106.08 10.22 106.08 10.35C106.08 10.48 106 11.15 105.91 11.47C105.83 11.73 105.8 11.77 105.2 11.77C104.24 11.77 103.28 11.7 102.2 11.7C101.85 11.7 101.52 11.73 101.1 11.73C100.98 11.73 100.92 11.71 100.92 11.64C100.92 11.61 100.94 11.57 101.01 11.57C101.11 11.57 101.25 11.55 101.35 11.53C101.57 11.49 101.63 11.24 101.67 10.91C101.73 10.44 101.73 9.55001 101.73 8.48001V6.51001C101.73 4.76001 101.73 4.45001 101.71 4.09001C101.69 3.71001 101.6 3.53001 101.23 3.45001C101.14 3.43001 100.95 3.42001 100.85 3.42001C100.81 3.42001 100.76 3.40001 100.76 3.35001C100.76 3.28001 100.82 3.26001 100.94 3.26001C101.44 3.26001 102.15 3.29001 102.21 3.29001C102.27 3.29001 103.08 3.26001 103.42 3.26001C103.54 3.26001 103.6 3.28001 103.6 3.35001C103.6 3.39001 103.56 3.42001 103.51 3.42001C103.43 3.42001 103.27 3.43001 103.14 3.45001C102.81 3.51001 102.73 3.70001 102.7 4.09001C102.68 4.45001 102.68 4.76001 102.68 6.51001V8.51001H102.67Z" fill="white"/>
<path d="M110.42 8.08C110.42 9.69 110.78 10.39 111.26 10.85C111.81 11.37 112.31 11.47 112.95 11.47C113.63 11.47 114.31 11.14 114.71 10.66C115.23 10.02 115.36 9.07 115.36 7.91V6.51C115.36 4.76 115.36 4.45 115.34 4.09C115.32 3.71 115.23 3.53 114.86 3.45C114.77 3.43 114.58 3.42 114.48 3.42C114.44 3.42 114.39 3.4 114.39 3.35C114.39 3.28 114.45 3.26 114.57 3.26C115.07 3.26 115.69 3.29 115.76 3.29C115.84 3.29 116.36 3.26 116.7 3.26C116.82 3.26 116.88 3.28 116.88 3.35C116.88 3.39 116.84 3.42 116.79 3.42C116.71 3.42 116.64 3.43 116.51 3.45C116.21 3.52 116.12 3.7 116.1 4.09C116.08 4.45 116.08 4.76 116.08 6.51V7.71C116.08 8.92 115.95 10.27 115.05 11.06C114.24 11.78 113.4 11.89 112.74 11.89C112.36 11.89 111.23 11.85 110.43 11.09C109.88 10.56 109.45 9.78 109.45 8.14V6.5C109.45 4.75 109.45 4.44 109.43 4.08C109.41 3.7 109.32 3.52 108.95 3.44C108.86 3.42 108.67 3.41 108.57 3.41C108.53 3.41 108.48 3.39 108.48 3.34C108.48 3.27 108.54 3.25 108.66 3.25C109.16 3.25 109.85 3.28 109.95 3.28C110.05 3.28 110.72 3.25 111.06 3.25C111.18 3.25 111.24 3.27 111.24 3.34C111.24 3.38 111.2 3.41 111.15 3.41C111.07 3.41 111 3.42 110.87 3.44C110.57 3.48 110.48 3.69 110.46 4.08C110.44 4.44 110.44 4.75 110.44 6.5V8.07L110.42 8.08Z" fill="white"/>
<path d="M121.179 6.51001C121.179 4.76001 121.179 4.45001 121.159 4.09001C121.139 3.71001 121.049 3.53001 120.679 3.45001C120.589 3.43001 120.399 3.42001 120.349 3.42001C120.249 3.42001 120.199 3.40001 120.199 3.35001C120.199 3.28001 120.259 3.26001 120.379 3.26001C120.879 3.26001 121.589 3.29001 121.649 3.29001C121.919 3.29001 122.359 3.26001 122.869 3.26001C124.709 3.26001 125.109 4.38001 125.109 4.94001C125.109 5.86001 124.579 6.41001 124.059 6.96001C124.889 7.22001 125.999 8.01001 125.999 9.33001C125.999 10.53 125.059 11.77 123.139 11.77C123.019 11.77 122.659 11.75 122.329 11.74C121.999 11.72 121.689 11.71 121.649 11.71C121.289 11.71 120.939 11.74 120.549 11.74C120.429 11.74 120.369 11.72 120.369 11.66C120.369 11.63 120.389 11.58 120.539 11.58C120.629 11.58 120.709 11.57 120.809 11.55C121.029 11.51 121.079 11.25 121.119 10.92C121.179 10.45 121.179 9.56001 121.179 8.49001V6.52001V6.51001ZM122.079 6.76001C122.079 6.84001 122.099 6.86001 122.159 6.88001C122.229 6.89001 122.429 6.92001 122.839 6.92001C123.469 6.92001 123.619 6.90001 123.859 6.63001C124.099 6.36001 124.259 5.96001 124.259 5.50001C124.259 4.57001 123.849 3.57001 122.749 3.57001C122.629 3.57001 122.389 3.58001 122.209 3.63001C122.109 3.65001 122.079 3.69001 122.079 3.75001V6.75001V6.76001ZM122.079 7.95001C122.079 8.81001 122.079 10.2 122.089 10.37C122.119 10.92 122.119 11.08 122.469 11.24C122.769 11.39 123.249 11.41 123.459 11.41C124.059 11.41 125.039 11.08 125.039 9.82001C125.039 9.15001 124.819 8.17001 123.949 7.58001C123.569 7.32001 123.289 7.29001 123.019 7.26001C122.869 7.24001 122.309 7.24001 122.149 7.24001C122.109 7.24001 122.079 7.26001 122.079 7.32001V7.96001V7.95001Z" fill="white"/>
<path d="M125.991 14.12H16.7109V14.82H125.991V14.12Z" fill="white"/>


<!-- <svg width="142" height="30" viewBox="0 0 142 30" xmlns="http://www.w3.org/2000/svg">
  <defs>
    <linearGradient id="gradient1" x1="0%" y1="0%" x2="100%" y2="0%">
      <stop offset="0%" style="stop-color:#00a9eb;stop-opacity:0.5" />
      <stop offset="100%" style="stop-color:#333;stop-opacity:1" />
    </linearGradient>
  </defs>
  <path d="M125.991 14.12H16.7109V14.82H125.991V14.12Z" fill="url(#gradient1)" />
</svg> -->


</g>
<defs>
<clipPath id="clip0_480_95">
<rect width="126" height="14.83" fill="white"/>
</clipPath>
</defs>
</svg>
