<svg width="29" height="7" viewBox="0 0 29 7" fill="none" xmlns="http://www.w3.org/2000/svg">
<g clip-path="url(#clip0_485_153)">
<path d="M5.72 2.13H5.11C5.03 1.34 4.2 0.52 3.04 0.52C1.33 0.52 0.61 1.94 0.61 3.35C0.61 4.76 1.34 6.18 3.03 6.18C4.35 6.18 5.25 5.31 5.25 3.88V3.83H3.06V3.31H5.79V6.58H5.35L5.27 5.41H5.25C4.85 6.26 4.04 6.71 3.03 6.71C1.04 6.71 0 5.17 0 3.36C0 1.55 1.01 0 3.03 0C4.41 0 5.48 0.76 5.71 2.13H5.72Z" fill="white"/>
<path d="M14.2199 3.35C14.2199 5.09 13.2299 6.7 11.1999 6.7C9.16992 6.7 8.16992 5.14 8.16992 3.35C8.16992 1.56 9.18992 0 11.1999 0C13.2099 0 14.2199 1.57 14.2199 3.35ZM11.1999 6.18C12.8699 6.18 13.6099 4.77 13.6099 3.35C13.6099 1.93 12.8999 0.52 11.1899 0.52C9.56992 0.52 8.77992 1.85 8.77992 3.35C8.77992 4.76 9.50992 6.18 11.1999 6.18Z" fill="white"/>
<path d="M17.3209 0.130005V6.04H20.9209V6.56H16.7109V0.130005H17.3209Z" fill="white"/>
<path d="M25.1805 0.130005C27.0805 0.130005 28.2405 1.07 28.2405 3.34C28.2405 5.46 27.2405 6.55 25.1705 6.55H23.0605V0.130005H25.1805ZM24.9705 6.04C26.7405 6.04 27.6305 5.36 27.6305 3.35C27.6305 1.34 26.8105 0.660005 24.9605 0.660005H23.6805V6.04H24.9805H24.9705Z" fill="white"/>
</g>
<defs>
<clipPath id="clip0_485_153">
<rect width="28.24" height="6.7" fill="white"/>
</clipPath>
</defs>
</svg>
