<svg width="47" height="7" viewBox="0 0 47 7" fill="none" xmlns="http://www.w3.org/2000/svg">
<g clip-path="url(#clip0_484_145)">
<path d="M2.86 0C3.97 0 4.76 0.64 4.76 1.84C4.76 3.04 3.93 3.68 2.86 3.68H0.61V6.43H0V0H2.86ZM2.73 3.15C3.57 3.15 4.15 2.74 4.15 1.84C4.15 1.04 3.68 0.53 2.71 0.53H0.61V3.16H2.73V3.15Z" fill="white"/>
<path d="M10.1292 0C11.2792 0 12.0992 0.57 12.0992 1.67C12.0992 2.53 11.6392 3.15 10.8492 3.31V3.33C11.8592 3.46 11.9592 4.27 11.9792 4.94C11.9992 5.38 12.0192 6.15 12.2692 6.43H11.5892C11.4492 6.22 11.4392 5.68 11.4092 5.25C11.3692 4.62 11.2792 4.21 11.0592 3.94C10.8592 3.69 10.5592 3.58 10.2192 3.58H7.80922V6.43H7.19922V0H10.1292ZM10.1092 3.05C10.8292 3.05 11.4892 2.59 11.4892 1.8C11.4892 1.01 10.9892 0.52 10.1092 0.52H7.80922V3.05H10.1092Z" fill="white"/>
<path d="M19.1705 0V0.52H15.3405V2.84H18.9205V3.36H15.3405V5.9H19.2105V6.42H14.7305V0H19.1705Z" fill="white"/>
<path d="M22.4805 0L24.7005 5.64L26.9105 0H27.8105V6.43H27.2005V0.87H27.1805L24.9805 6.42H24.4005L22.1905 0.87H22.1705V6.42H21.5605V0H22.4605H22.4805Z" fill="white"/>
<path d="M31.2799 0V6.43H30.6699V0H31.2799Z" fill="white"/>
<path d="M38.5904 0V0.52H34.7604V2.84H38.3404V3.36H34.7604V5.9H38.6304V6.42H34.1504V0H38.5904Z" fill="white"/>
<path d="M43.9493 0C45.0993 0 45.9193 0.57 45.9193 1.67C45.9193 2.53 45.4593 3.15 44.6693 3.31V3.33C45.6793 3.46 45.7793 4.27 45.7993 4.94C45.8193 5.38 45.8393 6.15 46.0893 6.43H45.4193C45.2793 6.22 45.2693 5.68 45.2393 5.25C45.1993 4.62 45.1093 4.21 44.8893 3.94C44.6893 3.69 44.3893 3.58 44.0493 3.58H41.6393V6.43H41.0293V0H43.9593H43.9493ZM43.9293 3.05C44.6493 3.05 45.3093 2.59 45.3093 1.8C45.3093 1.01 44.8093 0.52 43.9293 0.52H41.6293V3.05H43.9293Z" fill="white"/>
</g>
<defs>
<clipPath id="clip0_484_145">
<rect width="46.09" height="6.43" fill="white"/>
</clipPath>
</defs>
</svg>
