<?xml version="1.0" encoding="UTF-8"?>
<svg xmlns="http://www.w3.org/2000/svg" xmlns:xlink="http://www.w3.org/1999/xlink" version="1.1" viewBox="0 0 284.9 65.2">
  <defs>
    <style>
      .cls-1 {
        fill: url(#linear-gradient-2);
      }

      .cls-2 {
        fill: #231f20;
      }

      .cls-3 {
        fill: url(#linear-gradient);
      }
    </style>
    <linearGradient id="linear-gradient" x1="9.8" y1="17.5" x2="51.6" y2="57.1" gradientUnits="userSpaceOnUse">
      <stop offset="0" stop-color="#073b81"/>
      <stop offset=".5" stop-color="#00b4ed"/>
      <stop offset="1" stop-color="#c7e2f6"/>
    </linearGradient>
    <linearGradient id="linear-gradient-2" x1="24.6" y1="5.8" x2="42.1" y2="54.6" gradientUnits="userSpaceOnUse">
      <stop offset="0" stop-color="#073b81"/>
      <stop offset=".5" stop-color="#00b4ed"/>
      <stop offset="1" stop-color="#c7e2f6"/>
    </linearGradient>
  </defs>
  <!-- Generator: Adobe Illustrator 28.6.0, SVG Export Plug-In . SVG Version: 1.2.0 Build 709)  -->
  <g>
    <g id="Layer_1">
      <g>
        <path d="M135.7,58.5h-2.1c-.2-1-1.1-1.8-2.2-1.8-1.8,0-2.7,1.4-2.7,3.4s.9,3.3,2.7,3.3,2.1-.8,2.3-2.2h2.1c-.2,2.5-1.9,4.1-4.4,4.1s-4.9-2.3-4.9-5.2,1.8-5.3,4.9-5.3,4.1,1.3,4.3,3.6Z"/>
        <path d="M144.8,55.2l3.7,10h-2.3l-.8-2.2h-3.7l-.8,2.2h-2.2l3.8-10h2.3ZM143.6,57.7l-1.3,3.7h2.6l-1.3-3.7h0Z"/>
        <path d="M159.4,58.2h-2.1c0-1-.7-1.5-2-1.5s-1.5.4-1.5,1.1.4.9,2.7,1.4c1.5.4,3.3.9,3.3,3s-1.5,3.2-4.2,3.2-4.3-1-4.3-3.5h0c0,0,2.1,0,2.1,0,0,1.4,1.2,1.8,2.2,1.8s2-.3,2-1.2-.5-1-1.7-1.3c-.7-.2-1.4-.3-2-.5-1.5-.5-2.2-1.4-2.2-2.6,0-2,1.9-3,3.7-3s4,1,4,3.2Z"/>
        <path d="M165.7,55.2v10h-2.2v-10h2.2Z"/>
        <path d="M172.3,55.2l4.2,6.7h0v-6.7h2.1v10h-2.2l-4.2-6.7h0v6.7h-2.1v-10h2.2Z"/>
        <path d="M192.5,60.2c0,2.9-1.9,5.2-4.9,5.2s-4.9-2.3-4.9-5.2,1.8-5.3,4.9-5.3,4.9,2.3,4.9,5.3ZM187.5,63.6c1.9,0,2.7-1.5,2.7-3.3s-.9-3.4-2.7-3.4-2.7,1.5-2.7,3.4.9,3.3,2.7,3.3Z"/>
        <path d="M209,57.5c0,1-.6,1.9-1.8,2.5l1.3,1.6c.2-.3.3-.7.4-1.2h1.7c-.1,1-.5,1.8-1,2.5l2,2.4h-2.4l-.8-1c-.8.8-1.7,1.2-2.8,1.2-1.9,0-3.2-1.2-3.2-3s.8-2.2,2.2-2.9c-.7-.9-1-1.5-1-2.1,0-1.3,1.2-2.3,2.6-2.3s2.7.8,2.7,2.4ZM205.7,63.7c.6,0,1.1-.2,1.7-.9l-1.7-2.1c-.9.4-1.4,1-1.4,1.7s.7,1.3,1.4,1.3ZM206.2,58.8c.7-.4,1-.8,1-1.4s-.4-1-.9-1-.9.4-.9.9.1.8.8,1.5Z"/>
        <path d="M223.6,55.2v3.8h4v-3.8h2.2v10h-2.2v-4.3h-4v4.3h-2.2v-10h2.2Z"/>
        <path d="M243.7,60.2c0,2.9-1.9,5.2-4.9,5.2s-4.9-2.3-4.9-5.2,1.8-5.3,4.9-5.3,4.9,2.3,4.9,5.3ZM238.8,63.6c1.9,0,2.7-1.5,2.7-3.3s-.9-3.4-2.7-3.4-2.7,1.5-2.7,3.4.9,3.3,2.7,3.3Z"/>
        <path d="M255.1,55.2v1.8h-3v8.2h-2.2v-8.2h-3v-1.8h8.2Z"/>
        <path d="M266.3,55.2v1.8h-5.3v2.1h4.8v1.7h-4.8v2.5h5.4v1.8h-7.6v-10h7.5Z"/>
        <path d="M272.6,55.2v8.2h4.9v1.8h-7.1v-10h2.2Z"/>
      </g>
      <path class="cls-3" d="M24.6,1.2c-1.8.5-3.5,1.2-5.2,2-1.7.8-3.4,1.7-5,2.8C-.9,16.6-4.6,37.1,6.2,51.8c6.5,8.9,16.7,13.6,27.2,13.7h.7c6.7,0,13.5-2.1,19.4-6.1,4.8-3.3,8.4-7.6,10.9-12.3l.8-1.9-1.1,1.9c-2.2,3.5-5.2,6.6-8.8,9.1-14.6,10-34.7,6.8-44.9-7.2C.1,34.9,3.7,15.4,18.2,5.4c1.2-.8,2.5-1.6,3.7-2.2C25.1,1.9,28.5,0,32.1,0c-.5,0-.9,0-1.4,0-2.1,0-4.1.6-6.1,1.2"/>
      <path class="cls-1" d="M22.9,4.1c-1.9.9-3.7,2-5.4,3.3-5,3.9-8.8,9.2-10.6,15.7-4.3,15.8,5.3,31.9,21.6,36,5.1,1.3,10.2,1.2,15,0l1.8-.5-1.9.4c-3.7.5-7.6.4-11.5-.6-15.5-3.9-24.7-19.2-20.5-34.2,1.1-3.9,2.9-7.3,5.3-10.3,1.2-1.5,2.6-2.8,4-4C28.8,3.5,39.7,1.2,49.2,4.5c1.7.5,3.4,1,5,1.6-1.6-1-3.3-1.9-5.1-2.7-3.9-1.7-8.1-2.5-12.3-2.5s-9.7,1.1-14,3.2"/>
      <path d="M165.9,45.8c-.1-.1-.4,0-.6,0-6,2.3-11.6,3.4-18.1,1.5-6.5-1.9-8.2-3.9-12-6,3.4-2.4,5.3-6.2,5.3-10.6,0-7-5.3-11.8-13-11.8s-12.7,6-12.7,12.2,4,12.4,12.7,12.4,3.5-.3,5-.8c5.2,3.9,11.3,7.2,18.4,7.4,3,0,6.1-.3,9.4-1.4,3.3-1.1,5-2.3,5.3-2.6.2-.1.3-.3.2-.4M128.3,42.4c-6.4,0-10.6-5.9-10.4-12,.1-6.6,3.7-10.4,9.3-10.4s10.1,4.2,10.1,11.6c0,5.7-3,10.7-9,10.8"/>
      <path d="M28.7,50.1c-.7-.4-.8-.6-.8-1.9,0-2.6.2-4.6.3-5.4,0-.6.2-.8.4-.8s.4.2.4.6,0,1.2.2,1.9c.8,3.8,4.2,5.2,7.6,5.2,4.9,0,7.3-3.5,7.3-6.8s-1.5-5.6-5.9-9.2l-2.3-1.9c-5.4-4.5-6.7-7.6-6.7-11.1,0-5.5,4.1-9.2,10.6-9.2s3.5.2,4.8.5c1,.2,1.4.3,1.8.3s.5.1.5.4-.2,1.9-.2,5.4-.1,1.2-.4,1.2-.4-.3-.4-.7c0-.6-.4-2-.7-2.6-.3-.6-1.7-2.7-6.4-2.7s-6.3,2.2-6.3,5.9,1.3,4.8,6.3,8.6l1.4,1.1c6,4.8,7.5,7.9,7.5,12s-.8,6-4.4,8.5c-2.2,1.5-5,2.2-7.7,2.2s-4.8-.4-6.9-1.4"/>
      <path d="M59.2,39.2c0,2.6.4,3.4,1.3,3.6.6.1,1.3.2,1.6.2s.3.1.3.3-.2.3-.6.3c-1.9,0-3.2-.1-3.4-.1s-1.7.1-3.1.1-.5,0-.5-.3.1-.3.3-.3c.3,0,.9,0,1.3-.2.8-.2.9-1.1.9-3.9v-18.1c0-1.3.2-1.6.4-1.6.4,0,.9.6,1.3,1,.5.5,5.3,5.6,10.3,10.8,3.2,3.3,6.7,7.1,7.7,8.1l-.3-15.8c0-2-.2-2.7-1.2-2.9-.6-.1-1.3-.1-1.6-.1s-.3-.2-.3-.3c0-.2.3-.2.6-.2,1.5,0,3,0,3.4,0s1.4,0,2.8,0,.6,0,.6.2-.1.3-.4.3-.4,0-.8,0c-1.1.2-1.1.9-1.1,2.7v18.5c0,2.1-.1,2.3-.3,2.3-.3,0-.7-.3-2.5-1.9-.3-.3-5-4.9-8.5-8.5-3.8-4-7.5-7.8-8.5-8.9l.4,14.9Z"/>
      <path d="M97.5,19.3c7.3,0,12.9,4.5,12.9,11.8s-5.2,12.9-13.1,12.9-12.8-6.7-12.8-12.4,3.9-12.3,12.9-12.3M98.2,42.7c2.9,0,8.8-1.6,8.8-10.7s-4.6-11.5-9.8-11.5-9.4,3.4-9.4,10.3,4.4,11.9,10.3,11.9"/>
      <path d="M146.6,28.8c0-4.9,0-5.8,0-6.8,0-1-.3-1.6-1.3-1.7-.3,0-.8,0-1.1,0s-.3-.1-.3-.3c0-.2.1-.3.5-.3,1.5,0,3.4,0,3.7,0s2.3,0,3.3,0,.6,0,.6.3-.1.3-.3.3c-.2,0-.4,0-.8,0-.9.2-1,.7-1.1,1.7,0,1,0,1.9,0,6.8v4.4c0,4.6,1,6.5,2.4,7.7,1.6,1.4,3,1.7,4.9,1.7s3.9-.9,5-2.2c1.5-1.8,1.9-4.4,1.9-7.6v-4c0-4.9,0-5.8,0-6.8,0-1-.2-1.6-1.3-1.7-.3,0-.8,0-1.1,0s-.3-.1-.3-.3c0-.2.1-.3.5-.3,1.4,0,3.3,0,3.5,0s1.8,0,2.7,0,.5,0,.5.3-.1.3-.3.3c-.2,0-.4,0-.8,0-.9.2-1.1.7-1.2,1.7,0,1,0,1.9,0,6.8v3.4c0,3.4-.4,7.2-3,9.5-2.4,2-4.9,2.3-6.8,2.3s-4.5,0-6.8-2.2c-1.6-1.5-2.9-3.7-2.9-8.3v-4.6Z"/>
      <path d="M179.8,20.3c.4-1,.6-1.2.8-1.2.3,0,.4.4.8,1.1.6,1.3,5.8,14.4,7.8,19.1,1.2,2.8,2.1,3.2,2.8,3.5.5.1,1,.2,1.3.2s.4,0,.4.3-.4.3-.7.3-2.9,0-5.2,0c-.6,0-1.2,0-1.2-.2s0-.2.2-.2c.2,0,.5-.3.3-.9l-2.9-7.2c0-.2-.1-.2-.3-.2h-7.5c-.1,0-.3,0-.3.3l-1.9,5c-.3.8-.5,1.6-.5,2.1s.6.9,1.1.9h.3c.3,0,.3.1.3.3s-.2.3-.5.3c-.8,0-2.6-.1-2.9-.1s-2,.1-3.3.1-.6,0-.6-.3.2-.3.3-.3c.2,0,.7,0,1,0,1.5-.2,2.1-1.3,2.7-2.9l7.7-19.7ZM183.4,33.5c.2,0,.2,0,.1-.2l-3.2-8.6c-.2-.5-.4-.5-.6,0l-3,8.6c0,.1,0,.2.1.2h6.6Z"/>
      <path d="M200.9,34.5c0,4.6,0,6.5.7,7.1.5.5,1.8.7,4.3.7s3.2,0,3.9-1c.4-.5.7-1.1.8-1.8,0-.2.1-.4.3-.4s.2.2.2.5-.2,2.2-.5,3.2c-.2.7-.3.9-2.1.9s-4.2,0-5.7-.1c-1.5,0-2.6,0-3.6,0s-.7,0-1.3,0c-.7,0-1.4,0-1.9,0s-.5,0-.5-.3,0-.3.3-.3c.3,0,.7,0,1-.1.6-.2.7-.7.9-1.7.2-1.3.2-3.8.2-6.8v-5.6c0-4.9,0-5.8,0-6.8,0-1.1-.3-1.6-1.3-1.7-.3,0-.8,0-1.1,0s-.3-.1-.3-.3c0-.2.1-.3.5-.3,1.5,0,3.5,0,3.7,0s2.6,0,3.6,0,.5,0,.5.3-.2.2-.3.2c-.2,0-.7,0-1.1,0-1,.2-1.1.7-1.2,1.8,0,1,0,1.9,0,6.8v5.6Z"/>
      <path d="M242,39.5c.1,1.1.3,2.8,1.7,3.3.9.3,1.8.3,2.1.3s.3,0,.3.2-.3.3-.7.3c-.7,0-4.4,0-5.6-.2-.8,0-.9-.2-.9-.3s0-.2.2-.3c.2,0,.2-.5.1-1.1l-1.6-16h0l-7.9,16.1c-.7,1.4-.9,1.7-1.1,1.7s-.5-.3-1.1-1.4c-.9-1.6-3-5.6-3.8-7.3-1-2-3.6-7.3-4.2-8.6h-.2l-1.3,14.2c0,.5,0,1.1,0,1.6s.3.8.8.9c.6.1,1,.2,1.3.2s.3.1.3.2c0,.2-.2.3-.6.3-1.2,0-2.8-.1-3-.1s-1.9.1-2.7.1-.6,0-.6-.3.1-.2.3-.2.5,0,1-.1c1.1-.2,1.1-1.3,1.3-2.5l2.4-20.6c0-.3.2-.6.4-.6s.5.1.7.5l9.9,19.6,9.5-19.5c.2-.3.3-.5.5-.5s.4.3.5.9l2.2,19.4Z"/>
      <path d="M254.8,34.4c0,3,0,5.5.1,6.8.1.9.2,1.5,1.2,1.7.5,0,1.2.2,1.5.2s.3.1.3.3-.2.3-.5.3c-1.8,0-3.9-.1-4.1-.1s-2.2.1-3.2.1-.5,0-.5-.3,0-.3.3-.3c.3,0,.7,0,1-.2.6-.2.7-.7.9-1.7.1-1.3.2-3.8.2-6.8v-5.6c0-4.9,0-5.8,0-6.8,0-1.1-.3-1.6-1-1.7-.4,0-.8-.1-1-.1s-.3-.1-.3-.3c0-.2.1-.3.5-.3,1.1,0,3.1,0,3.3,0s2.3,0,3.3,0,.5,0,.5.3-.1.3-.3.3c-.2,0-.4,0-.8,0-.9.2-1.1.6-1.2,1.7,0,1,0,1.9,0,6.8v5.6Z"/>
      <path d="M265.5,28.8c0-4.9,0-5.8,0-6.8,0-1.1-.3-1.6-1.3-1.7-.3,0-.8,0-1.1,0s-.3-.1-.3-.3c0-.2.2-.3.5-.3,1.5,0,3.6,0,3.8,0s7,0,7.8,0c.6,0,1.2-.1,1.5-.2.2,0,.3-.2.4-.2s.1.2.1.3c0,.2-.2.6-.3,1.5,0,.3-.1,1.7-.2,2.1,0,.1-.2.3-.3.3s-.3-.1-.3-.4,0-.7-.2-1.1c-.2-.5-.6-.7-2.3-1-.6,0-4.3-.1-4.7-.1s-.2.1-.2.3v8.6c0,.2,0,.3.2.3.4,0,4.7,0,5.5,0,.8,0,1.3-.1,1.6-.4.2-.2.4-.4.5-.4s.2,0,.2.3-.2.7-.3,1.7c0,.6-.1,1.8-.1,2s0,.6-.3.6-.2-.1-.2-.3c0-.3,0-.6-.2-1-.1-.4-.4-.8-1.7-1-.9-.1-4.4-.1-4.9-.1s-.2.1-.2.2v2.6c0,1.1,0,4.8,0,5.4,0,2.1.7,2.5,3.9,2.5s2.4,0,3.3-.3c.9-.4,1.3-.9,1.5-2.2,0-.4.1-.5.3-.5s.2.3.2.5-.3,2.4-.4,3c-.2.8-.6.8-1.8.8-2.4,0-4.3,0-5.7-.1-1.4,0-2.2,0-2.7,0s-.7,0-1.4,0c-.6,0-1.4,0-1.9,0s-.5,0-.5-.3,0-.3.3-.3c.3,0,.7-.1,1-.1.6-.1.7-.7.9-1.7.2-1.3.2-3.8.2-6.8v-5.6Z"/>
      <g>
        <path class="cls-2" d="M282.4,40.8v.3h-.8v2h-.3v-2h-.8v-.3h1.8Z"/>
        <path class="cls-2" d="M283,40.8l.7,1.9.7-1.9h.4v2.3h-.3v-1.9h0l-.7,1.9h-.3l-.7-1.9h0v1.9h-.3v-2.3h.4Z"/>
      </g>
    </g>
  </g>
</svg>