<svg width="25" height="25" viewBox="0 0 25 25" fill="none" xmlns="http://www.w3.org/2000/svg">
<g clip-path="url(#clip0_482_131)">
<path d="M10.54 18.76C10.27 18.63 10.25 18.55 10.25 18.03C10.25 17.07 10.33 16.3 10.35 16C10.37 15.79 10.41 15.69 10.5 15.69C10.62 15.69 10.63 15.75 10.63 15.9C10.63 16.07 10.63 16.34 10.69 16.61C10.98 18.03 12.24 18.57 13.53 18.57C15.37 18.57 16.27 17.25 16.27 16.02C16.27 14.7 15.71 13.93 14.06 12.57L13.2 11.86C11.17 10.19 10.71 9 10.71 7.7C10.71 5.65 12.24 4.25 14.68 4.25C15.43 4.25 15.98 4.33 16.46 4.44C16.82 4.52 16.98 4.54 17.13 4.54C17.28 4.54 17.32 4.58 17.32 4.67C17.32 4.76 17.24 5.4 17.24 6.7C17.24 7.01 17.2 7.14 17.11 7.14C16.99 7.14 16.98 7.04 16.96 6.89C16.94 6.66 16.83 6.14 16.71 5.93C16.59 5.72 16.08 4.91 14.31 4.91C12.99 4.91 11.95 5.74 11.95 7.14C11.95 8.23 12.45 8.92 14.29 10.36L14.83 10.78C17.09 12.56 17.63 13.75 17.63 15.29C17.63 16.08 17.32 17.53 16 18.47C15.17 19.05 14.14 19.28 13.1 19.28C12.2 19.28 11.32 19.15 10.53 18.76" fill="white"/>
<path d="M9.21 0.45C8.54 0.64 7.89 0.88 7.25 1.18C6.61 1.48 5.99 1.83 5.39 2.25C1.9 4.66 0.02 8.46 0 12.3V12.43C0.01 14.85 0.76 17.28 2.3 19.39C4.72 22.71 8.56 24.5 12.48 24.53H12.68C15.2 24.51 17.75 23.77 19.98 22.24C21.77 21.01 23.14 19.41 24.05 17.63L24.37 16.93L23.97 17.63C23.14 18.92 22.04 20.08 20.68 21.02C15.23 24.77 7.71 23.56 3.89 18.32C0.0500002 13.07 1.37 5.78 6.81 2.03C7.26 1.72 7.73 1.44 8.21 1.19C9.37 0.7 10.65 0 12.02 0.03C11.85 0.01 11.67 0 11.5 0C10.71 0 9.97 0.21 9.21 0.45Z" fill="white"/>
<path d="M8.54944 1.52998C7.83944 1.87998 7.16944 2.29998 6.54944 2.77998C4.67944 4.21998 3.25944 6.23998 2.59944 8.63998C0.979436 14.55 4.59943 20.59 10.6894 22.11C12.5894 22.58 14.5094 22.56 16.2994 22.13L16.9794 21.93L16.2494 22.07C14.8594 22.27 13.3994 22.21 11.9494 21.85C6.15944 20.4 2.71944 14.68 4.25944 9.05998C4.65944 7.61998 5.34944 6.31998 6.24944 5.20998C6.69944 4.65998 7.20944 4.14998 7.74944 3.69998C10.7594 1.30998 14.8494 0.469976 18.4094 1.69998C19.0394 1.86998 19.6694 2.06998 20.2794 2.28998C19.6694 1.89998 19.0294 1.56998 18.3694 1.28998C16.8994 0.649976 15.3294 0.349976 13.7794 0.349976C11.9594 0.349976 10.1694 0.769976 8.55944 1.54998" fill="white"/>
</g>
<defs>
<clipPath id="clip0_482_131">
<rect width="24.36" height="24.53" fill="white"/>
</clipPath>
</defs>
</svg>
