<svg width="13" height="13" viewBox="0 0 13 13" fill="none" xmlns="http://www.w3.org/2000/svg">
<path d="M6.31 12.7999C5.44 12.7999 4.62 12.6399 3.86 12.3099C3.1 11.9799 2.43 11.5299 1.85 10.9499C1.27 10.3699 0.82 9.69994 0.49 8.93994C0.16 8.17994 0 7.35994 0 6.48994C0 5.61994 0.16 4.79994 0.49 4.03994C0.82 3.27994 1.27 2.60994 1.85 2.02994C2.43 1.44994 3.11 0.999941 3.87 0.679941C4.63 0.349941 5.45 0.189941 6.32 0.189941C7.19 0.189941 8.01 0.349941 8.77 0.679941C9.53 1.00994 10.2 1.45994 10.78 2.03994C11.36 2.61994 11.81 3.28994 12.14 4.04994C12.47 4.80994 12.63 5.62994 12.63 6.49994C12.63 7.36994 12.47 8.18994 12.14 8.94994C11.81 9.70994 11.36 10.3799 10.78 10.9599C10.2 11.5399 9.53 11.9899 8.77 12.3199C8.01 12.6499 7.19 12.8099 6.32 12.8099L6.31 12.7999ZM6.31 11.6099C7.02 11.6099 7.68 11.4799 8.3 11.2099C8.92 10.9399 9.46 10.5799 9.93 10.1099C10.4 9.63994 10.77 9.09994 11.03 8.47994C11.29 7.85994 11.43 7.19994 11.43 6.48994C11.43 5.77994 11.3 5.11994 11.03 4.49994C10.76 3.87994 10.4 3.33994 9.93 2.86994C9.46 2.39994 8.92 2.02994 8.3 1.76994C7.68 1.50994 7.02 1.36994 6.31 1.36994C5.6 1.36994 4.95 1.49994 4.33 1.76994C3.71 2.03994 3.17 2.39994 2.7 2.86994C2.23 3.33994 1.87 3.87994 1.6 4.49994C1.34 5.11994 1.21 5.77994 1.21 6.48994C1.21 7.19994 1.34 7.85994 1.6 8.47994C1.86 9.09994 2.23 9.63994 2.7 10.1099C3.17 10.5799 3.71 10.9499 4.33 11.2099C4.95 11.4799 5.61 11.6099 6.31 11.6099ZM3.19 7.18994C3.05 7.18994 2.94 7.13994 2.85 7.04994C2.76 6.95994 2.71 6.84994 2.71 6.70994C2.71 6.56994 2.76 6.45994 2.85 6.36994C2.94 6.27994 3.05 6.22994 3.19 6.22994H5.83V2.68994C5.83 2.54994 5.88 2.43994 5.97 2.34994C6.06 2.25994 6.17 2.20994 6.31 2.20994C6.45 2.20994 6.56 2.25994 6.65 2.34994C6.74 2.43994 6.79 2.55994 6.79 2.68994V6.70994C6.79 6.84994 6.74 6.95994 6.65 7.04994C6.56 7.13994 6.44 7.18994 6.31 7.18994H3.19Z" fill="#979797"/>
</svg>
