<svg width="46" height="7" viewBox="0 0 46 7" fill="none" xmlns="http://www.w3.org/2000/svg">
<path d="M5.62 2.08H5.01C4.79 1.1 3.98 0.52 3.04 0.52C1.35 0.52 0.61 1.92 0.61 3.35C0.61 4.78 1.31 6.18 3.03 6.18C4.15 6.18 4.97 5.34 5.09 4.12H5.7C5.53 5.74 4.49 6.7 3.03 6.7C1.03 6.7 0 5.15 0 3.35C0 1.55 0.99 0 3.03 0C4.29 0 5.45 0.77 5.61 2.08H5.62Z" fill="white"/>
<path d="M8.77992 0.130005V6.04H12.3799V6.56H8.16992V0.130005H8.77992Z" fill="white"/>
<path d="M17.1003 0.130005L19.6203 6.56H18.9603L18.1803 4.56H15.2503L14.4803 6.56H13.8203L16.4203 0.130005H17.1003ZM15.4403 4.04H17.9703L16.7303 0.750005L15.4403 4.04Z" fill="white"/>
<path d="M26.2097 1.99999H25.5997C25.5597 1.04999 24.7897 0.51999 23.8397 0.51999C22.9697 0.51999 22.2397 0.87999 22.2397 1.79999C22.2397 2.46999 22.7797 2.66999 23.1397 2.75999L24.7097 3.14999C25.9497 3.45999 26.4497 4.00999 26.4497 4.85999C26.4497 5.48999 26.1097 6.69999 23.9897 6.69999C22.4097 6.69999 21.4297 5.96999 21.4297 4.60999V4.44999H22.0397V4.49999C22.0397 5.67999 22.8397 6.16999 24.1197 6.16999C24.8497 6.16999 25.8397 5.77999 25.8397 4.85999C25.8397 4.27999 25.3897 3.90999 24.5497 3.70999L23.0797 3.34999C22.1297 3.11999 21.6297 2.66999 21.6297 1.79999C21.6297 1.06999 22.1297 -0.0100098 23.8397 -0.0100098C25.1997 -0.0100098 26.2297 0.71999 26.2297 1.98999L26.2097 1.99999Z" fill="white"/>
<path d="M33.4091 1.99999H32.7991C32.7591 1.04999 31.9891 0.51999 31.0391 0.51999C30.1691 0.51999 29.4391 0.87999 29.4391 1.79999C29.4391 2.46999 29.9791 2.66999 30.3391 2.75999L31.9091 3.14999C33.1491 3.45999 33.6491 4.00999 33.6491 4.85999C33.6491 5.48999 33.3091 6.69999 31.1891 6.69999C29.6091 6.69999 28.6191 5.96999 28.6191 4.60999V4.44999H29.2291V4.49999C29.2291 5.67999 30.0291 6.16999 31.3091 6.16999C32.0391 6.16999 33.0291 5.77999 33.0291 4.85999C33.0291 4.27999 32.5791 3.90999 31.7391 3.70999L30.2691 3.34999C29.3191 3.11999 28.8191 2.66999 28.8191 1.79999C28.8191 1.06999 29.3191 -0.0100098 31.0291 -0.0100098C32.3891 -0.0100098 33.4191 0.71999 33.4191 1.98999L33.4091 1.99999Z" fill="white"/>
<path d="M36.7897 0.130005V6.56H36.1797V0.130005H36.7897Z" fill="white"/>
<path d="M44.9694 2.08H44.3594C44.1394 1.1 43.3294 0.52 42.3894 0.52C40.7094 0.52 39.9694 1.92 39.9694 3.35C39.9694 4.78 40.6694 6.18 42.3894 6.18C43.5094 6.18 44.3294 5.34 44.4494 4.12H45.0594C44.8894 5.74 43.8494 6.7 42.3894 6.7C40.3894 6.7 39.3594 5.15 39.3594 3.35C39.3594 1.55 40.3494 0 42.3894 0C43.6494 0 44.8094 0.77 44.9694 2.08Z" fill="white"/>
</svg>
