<svg width="24" height="24" viewBox="0 0 24 24" fill="none" xmlns="http://www.w3.org/2000/svg">
<g clip-path="url(#clip0_620_90)">
<path d="M10.1901 1.00023C12.6501 1.00023 14.9501 1.96023 16.6901 3.69023C20.0501 7.05023 20.3101 12.3502 17.3001 16.0202L16.7201 16.7302L16.0101 17.3102C14.3801 18.6502 12.3101 19.3902 10.1801 19.3902C7.72012 19.3902 5.42012 18.4302 3.68012 16.7002C0.110117 13.1102 0.110117 7.28023 3.69012 3.69023C5.43012 1.95023 7.74012 1.00023 10.1901 1.00023ZM10.1901 0.000234375C7.58012 0.000234375 4.97012 1.00023 2.98012 2.99023C-0.999883 6.97023 -0.999883 13.4302 2.98012 17.4102C4.97012 19.4002 7.58012 20.3902 10.1901 20.3902C12.4801 20.3902 14.7801 19.6202 16.6501 18.0802C16.6601 18.0902 16.6701 18.1102 16.6801 18.1202L22.2601 23.7002C22.4601 23.9002 22.7201 24.0002 22.9801 24.0002C23.2401 24.0002 23.5001 23.9002 23.7001 23.7002C24.1001 23.3002 24.1001 22.6602 23.7001 22.2602L18.1201 16.6802C18.1201 16.6802 18.0901 16.6602 18.0801 16.6502C21.3701 12.6502 21.1401 6.72023 17.4001 2.98023C15.4101 0.990234 12.8001 -0.00976562 10.1901 -0.00976562V0.000234375Z" fill="black"/>
</g>
<defs>
<clipPath id="clip0_620_90">
<rect width="24" height="24" fill="white"/>
</clipPath>
</defs>
</svg>
